<?xml version="1.0" encoding="UTF-8"?>
<svg width="200px" height="200px" viewBox="0 0 200 200" version="1.1" xmlns="http://www.w3.org/2000/svg" xmlns:xlink="http://www.w3.org/1999/xlink">
    <title>Fill &amp; Sign-Acrobat Logo</title>
    <defs>
        <linearGradient x1="0%" y1="0%" x2="100%" y2="100%" id="purpleGradient">
            <stop stop-color="#A076FF" offset="0%"></stop>
            <stop stop-color="#8C52FF" offset="100%"></stop>
        </linearGradient>
        <filter x="-10%" y="-10%" width="120%" height="120%" filterUnits="objectBoundingBox" id="dropShadow">
            <feGaussianBlur stdDeviation="3" in="SourceAlpha" result="shadowBlurInner1"></feGaussianBlur>
            <feOffset dx="0" dy="2" in="shadowBlurInner1" result="shadowOffsetInner1"></feOffset>
            <feComposite in="shadowOffsetInner1" in2="SourceAlpha" operator="arithmetic" k2="-1" k3="1" result="shadowInnerInner1"></feComposite>
            <feColorMatrix values="0 0 0 0 0   0 0 0 0 0   0 0 0 0 0  0 0 0 0.2 0" type="matrix" in="shadowInnerInner1"></feColorMatrix>
        </filter>
    </defs>
    <g stroke="none" stroke-width="1" fill="none" fill-rule="evenodd">
        <rect fill="#FFFFFF" x="0" y="0" width="200" height="200" rx="20"></rect>
        <rect fill="url(#purpleGradient)" x="20" y="20" width="160" height="160" rx="12" filter="url(#dropShadow)"></rect>
        
        <!-- Document icon -->
        <g transform="translate(50, 50)">
            <!-- Document base -->
            <path d="M80,90 L20,90 C17.2386,90 15,87.7614 15,85 L15,15 C15,12.2386 17.2386,10 20,10 L60,10 L85,35 L85,85 C85,87.7614 82.7614,90 80,90 Z" fill="#FFFFFF"></path>
            
            <!-- Document fold -->
            <path d="M60,10 L60,35 L85,35 L60,10 Z" fill="#DDDDDD"></path>
            
            <!-- Signature line -->
            <path d="M30,65 C35,58 40,70 45,65 C50,60 55,75 60,70 C65,65 70,75 75,70" stroke="#8C52FF" stroke-width="3" stroke-linecap="round"></path>
            
            <!-- Pen icon -->
            <g transform="translate(55, 40)">
                <path d="M20,0 L25,5 L5,25 L0,25 L0,20 L20,0 Z" fill="#8C52FF"></path>
                <rect fill="#A076FF" x="0" y="20" width="5" height="5"></rect>
            </g>
            
            <!-- Form elements -->
            <rect fill="#EEEEEE" x="25" y="25" width="50" height="8" rx="2"></rect>
            <rect fill="#EEEEEE" x="25" y="40" width="20" height="8" rx="2"></rect>
            <rect fill="#EEEEEE" x="25" y="55" width="50" height="3" rx="1.5"></rect>
        </g>
    </g>
</svg>