<?xml version="1.0" encoding="UTF-8"?>
<svg xmlns="http://www.w3.org/2000/svg" viewBox="0 0 240 234" width="48" height="48">
  <defs>
    <style>.a{fill:#ED2224;}</style>
  </defs>
  <path class="a" d="M42.5,0h155C221,0,240,19,240,42.5v149c0,23.5-19,42.5-42.5,42.5h-155C19,234,0,215,0,191.5v-149C0,19,19,0,42.5,0Z"/>
  <path d="M141.9,136.1c-11.9,0-16.9,12-16.9,21.5c0,10.3,5.5,19.9,17.4,19.9c10.9,0,16.2-10.2,16.2-21.2C158.6,145.1,151.8,136.1,141.9,136.1z M142.1,170.2c-5.6,0-7.8-7.5-7.8-14.4c0-7.1,2.2-12.5,7.9-12.5c6.3,0,7.4,7.2,7.4,12.8C149.7,162.6,148.2,170.2,142.1,170.2z"/>
  <path d="M76.9,136.1c-13.4,0-16.9,14.8-16.9,24.5c0,10,4.7,16.9,15.8,16.9c2.3,0,4.5-0.3,6.5-1.1V159h-8v-7.2H92v29.5c-4.9,2.8-11.2,3.7-17.1,3.7c-16.4,0-23.5-10.1-23.5-24.9c0-14.9,8.4-29.6,28-29.6c6.1,0,11.5,1.3,14.4,2.7l-2.2,7.1C87.5,138.3,82.7,136.1,76.9,136.1z"/>
  <path d="M180.6,176.2h-8.8v-20.2h-16.6v20.2h-8.8v-46.4h8.8v18.9h16.6v-18.9h8.8V176.2z"/>
  <path d="M132.3,81.1l-3.9-18.9H85.2l-3.8,18.7c-0.2,0.9-1,1.5-1.9,1.5h-27c-1.3,0-2.3-1.2-1.9-2.4l36.8-104.4c0.3-0.8,1-1.3,1.9-1.3h34c0.8,0,1.6,0.5,1.8,1.3l37,104.4c0.4,1.2-0.6,2.4-1.9,2.4h-27C133.3,82.5,132.5,81.9,132.3,81.1z M106.9,14.5c-3.2,11.8-8.2,26.8-11.7,40.3h22.9c-3.5-13.7-7.3-26.8-10.4-40.3C107.6,14.3,107.1,14.3,106.9,14.5z"/>
</svg>