<?xml version="1.0" encoding="UTF-8"?>
<svg xmlns="http://www.w3.org/2000/svg" viewBox="0 0 240 234" width="48" height="48">
  <defs>
    <style>.a{fill:#9999FF;}</style>
  </defs>
  <rect class="a" width="240" height="234" rx="42.5"/>
  <path d="M96.6,140.4H73L66.7,160h-17L76.7,85.1h17.4L121,160h-17.8L96.6,140.4z M75.3,127.3h18.8l-9.3-29.1L75.3,127.3z"/>
  <path d="M159.8,160h-15.2c-0.5,0-0.7-0.3-0.7-0.8v-45.6c0-0.5,0-0.8-0.2-0.8h-0.3l-9.3,6.3c-0.3,0.3-0.5,0.3-0.8,0l-6.5-9.9 c-0.3-0.3-0.3-0.5,0-0.8l19.9-13.6c0.3-0.3,0.5-0.3,0.8-0.3h11.3c0.5,0,0.7,0.3,0.7,0.8v64.1C159.8,160,159.5,160,159.8,160z"/>
</svg>