<?xml version="1.0" encoding="UTF-8"?>
<svg xmlns="http://www.w3.org/2000/svg" viewBox="0 0 240 234" width="48" height="48">
  <defs>
    <style>.a{fill:#69C8C8;}</style>
  </defs>
  <rect class="a" width="240" height="234" rx="42.5"/>
  <path d="M120,77c-23.7,0-43,19.2-43,43s19.2,43,43,43s43-19.2,43-43S143.7,77,120,77z M106.1,144.2L106.1,144.2V95.8l43.6,24.2 L106.1,144.2z"/>
  <path d="M155.4,55.7H84.6c-16,0-29,13-29,29v64.6c0,16,13,29,29,29h70.8c16,0,29-13,29-29V84.6C184.4,68.7,171.4,55.7,155.4,55.7z M120,176.2c-31,0-56.2-25.2-56.2-56.2S89,63.8,120,63.8s56.2,25.2,56.2,56.2S151,176.2,120,176.2z"/>
</svg>