<?xml version="1.0" encoding="UTF-8"?>
<svg xmlns="http://www.w3.org/2000/svg" viewBox="0 0 240 234" width="48" height="48">
  <defs>
    <style>.a{fill:#FF61F6;}</style>
  </defs>
  <rect class="a" width="240" height="234" rx="42.5"/>
  <path d="M146.1,145.5h-22.7L117.6,160H99.8l25.3-70h21.9l25.3,70h-20.3L146.1,145.5z M134.8,114.2l-7.2,19.5h14.3L134.8,114.2 z"/>
  <path d="M67.5,160V90h28.2c14.3,0,23.3,9,23.3,24.1c0,15.1-10.6,24.1-26.3,24.1h-8.1V160H67.5z M84.7,127.4h7.5 c6.8,0,10.2-4.4,10.2-13.3c0-8.9-3.4-13.3-10.2-13.3h-7.5V127.4z"/>
  <path d="M172.4,160v-12.7l24.8-26.4h-24V110h45v10.5l-25.7,28.6h26.2V160H172.4z"/>
</svg>