<?xml version="1.0" encoding="UTF-8"?>
<svg xmlns="http://www.w3.org/2000/svg" viewBox="0 0 240 234" width="48" height="48">
  <defs>
    <style>.a{fill:#4B99D8;}</style>
  </defs>
  <rect class="a" width="240" height="234" rx="42.5"/>
  <path d="M120,46.5L59.1,80.4v73.2l60.9,33.9l60.9-33.9V80.4L120,46.5z M164.5,145.9l-44.5,24.8l-44.5-24.8V88.2l44.5-24.8 l44.5,24.8V145.9z"/>
  <path d="M120,75.2L88.3,93.1v35.9l31.7,17.9l31.7-17.9V93.1L120,75.2z M138.5,124.2l-18.5,10.2l-18.5-10.2v-20.9l18.5-10.2 l18.5,10.2V124.2z"/>
  <path d="M120,105l-7.4,4v8.2l7.4,4l7.4-4v-8.2L120,105z"/>
</svg>