<?xml version="1.0" encoding="UTF-8"?>
<svg xmlns="http://www.w3.org/2000/svg" viewBox="0 0 240 234" width="48" height="48">
  <defs>
    <style>.a{fill:#ADD8E6;}</style>
  </defs>
  <path class="a" d="M42.5,0h155C221,0,240,19,240,42.5v149c0,23.5-19,42.5-42.5,42.5h-155C19,234,0,215,0,191.5v-149C0,19,19,0,42.5,0Z"/>
  <path d="M126.2,140.5h-29.4v46.3h29.5c11.5,0,17.3-7.5,17.3-15.4v-15.4C143.6,148.1,137.6,140.5,126.2,140.5ZM132.2,171.1c0,3.8-2.4,6.2-7.9,6.2h-16v-26.5h16c5.5,0,7.9,2.4,7.9,6.2Z"/>
  <path d="M82.7,140.5H58.1v46.3H69.6V169.5H82.7c9.3,0,16-5.4,16-14.6C98.7,146,91.8,140.5,82.7,140.5Zm-0.4,19.4H69.6v-10h12.7c3.6,0,5.9,1.7,5.9,4.9C88.2,158.1,85.9,159.9,82.3,159.9Z"/>
  <path d="M179.6,161.9h-5.1v-11.6h5.1c4.1,0,6.3,2.2,6.3,5.7C185.9,159.7,183.6,161.9,179.6,161.9Z"/>
  <path d="M178.1,140.5h-15v46.3h11.5V171.1h3.5c11.3,0,18.6-5.4,18.6-15.4C196.7,146.1,189.3,140.5,178.1,140.5Zm1.5,21.4h-5.1v-11.6h5.1c4.1,0,6.3,2.2,6.3,5.7C185.9,159.7,183.6,161.9,179.6,161.9Z"/>
  <path d="M138.9,66.7l25.2-2.5v71.8H138.9V66.7z"/>
  <path d="M74.8,136H53.4l-3.1-16.4h-31L16,136H0l28.8-110.1h24.3L74.8,136z M45.4,101L36.2,53.9C36.2,53.9,35.6,51,35.6,51h-0.6c0,0-0.6,2.9-0.6,2.9L25.3,101H45.4z"/>
</svg>