<?xml version="1.0" encoding="UTF-8"?>
<svg xmlns="http://www.w3.org/2000/svg" viewBox="0 0 240 234" width="48" height="48">
  <defs>
    <style>.a{fill:#31A8FF;}</style>
  </defs>
  <rect class="a" width="240" height="234" rx="42.5"/>
  <path d="M54.1,182.9V60.6c0-0.8,0.3-1.2,1.1-1.2c1.7,0,3.4,0,5.6,0c2.2,0,4.4-0.1,6.8-0.1c2.4,0,4.9,0,7.5-0.1 c2.6,0,5.1-0.1,7.6-0.1c5.6,0,10.9,0.6,15.9,1.9c4.1,1.1,7.6,2.7,10.6,4.9c2.8,2,5.1,4.5,6.8,7.4c1.6,2.7,2.4,5.8,2.4,9.1 c0,5.7-1.3,10.3-4,13.8c-2.6,3.5-6.3,6.3-10.9,8.4c-4.8,2.2-10.4,3.7-16.8,4.4c-6.4,0.8-13.2,1.1-20.4,1.1h-7.8v52.9 c0,0.9-0.3,1.4-1.1,1.4h-8.6C54.4,184.3,54.1,183.8,54.1,182.9L54.1,182.9z M71.7,98V73c2.8-0.1,5.4-0.2,7.9-0.2 c2.5,0,5,0.1,7.5,0.2c2.3,0.1,4.5,0.4,6.7,0.9c2.2,0.5,4.1,1.3,5.8,2.4c1.7,1.1,3,2.5,4.1,4.2c1,1.8,1.5,4,1.5,6.9 c0,5.1-1.5,8.6-4.6,10.8c-3.1,2.2-7.1,3.3-12,3.3c-2.6,0-5.1-0.1-7.6-0.1c-2.5,0-5-0.1-7.5-0.2c-0.6,0-1.1,0-1.5-0.1 C71.8,99.8,71.7,99.4,71.7,98z"/>
  <path d="M192,106.9c-3-1.5-6.3-2.7-9.9-3.5c-3.6-0.8-7.2-1.3-10.9-1.3c-2.6,0-5.1,0.2-7.5,0.7c-2.4,0.5-3.6,1.5-3.6,3.2 c0,0.7,0.3,1.3,0.9,1.8c0.6,0.5,1.5,1,2.8,1.5c1.3,0.5,2.9,1,4.8,1.7c1.9,0.6,4.1,1.3,6.6,2.1c3.6,1.1,6.7,2.3,9.5,3.5 c2.8,1.2,5.1,2.6,7,4.2c1.9,1.6,3.4,3.5,4.3,5.7c1,2.2,1.5,4.7,1.5,7.7c0,4.7-1.3,8.5-3.8,11.4c-2.5,2.9-5.7,5.2-9.5,6.7 c-3.8,1.5-7.9,2.5-12.5,3c-4.6,0.5-8.9,0.8-13,0.8c-4.7,0-9.4-0.4-14.2-1.1c-4.8-0.7-9.2-2-13.3-3.7c-0.7-0.3-1.1-0.7-1.3-1.2 c-0.2-0.5-0.3-1.1-0.3-1.9v-7.8c0-0.9,0.5-1.3,1.4-1.3c0.5,0,1,0.1,1.7,0.4c0.7,0.3,1.6,0.6,2.7,1c4.5,1.4,8.8,2.5,12.9,3.2 c4.1,0.7,8,1.1,11.5,1.1c5.3,0,9-0.6,11.2-1.9c2.2-1.3,3.3-3,3.3-5c0-0.9-0.3-1.7-0.8-2.4c-0.5-0.7-1.4-1.3-2.7-1.9 c-1.3-0.6-2.9-1.1-4.8-1.7c-1.9-0.5-4.4-1.2-7.3-1.9c-3.2-0.9-6.1-1.8-8.7-2.9c-2.6-1.1-4.8-2.3-6.6-3.8c-1.8-1.5-3.2-3.2-4.2-5.2 c-1-2-1.5-4.4-1.5-7.1c0-4.4,1.1-8,3.4-10.9c2.3-2.9,5.2-5.2,8.7-6.8c3.5-1.6,7.5-2.8,11.8-3.4c4.3-0.6,8.5-0.9,12.6-0.9 c4.1,0,8.2,0.3,12.4,0.8c4.2,0.5,8,1.3,11.4,2.5c0.8,0.3,1.5,0.7,1.9,1.3c0.4,0.6,0.7,1.3,0.7,2.1v7.2c0,0.9-0.5,1.4-1.4,1.4 C193.1,107.4,192.5,107.2,192,106.9L192,106.9z"/>
</svg>