<?xml version="1.0" encoding="UTF-8"?>
<svg width="60px" height="60px" viewBox="0 0 60 60" version="1.1" xmlns="http://www.w3.org/2000/svg" xmlns:xlink="http://www.w3.org/1999/xlink">
    <title>Resilience Icon</title>
    <g id="Resilience-Icon" stroke="none" stroke-width="1" fill="none" fill-rule="evenodd">
        <circle id="Circle" fill="#E9F1FF" cx="30" cy="30" r="29"></circle>
        <path d="M30,12 L30,48" id="Vertical-Line" stroke="#1473E6" stroke-width="2" stroke-linecap="round"></path>
        <path d="M15,20 L45,20" id="Horizontal-Line-1" stroke="#1473E6" stroke-width="2" stroke-linecap="round"></path>
        <path d="M15,30 L45,30" id="Horizontal-Line-2" stroke="#1473E6" stroke-width="2" stroke-linecap="round"></path>
        <path d="M15,40 L45,40" id="Horizontal-Line-3" stroke="#1473E6" stroke-width="2" stroke-linecap="round"></path>
        <rect id="Top-Left" stroke="#1473E6" stroke-width="2" fill-opacity="0.1" fill="#1473E6" x="15" y="12" width="15" height="8" rx="2"></rect>
        <rect id="Top-Right" stroke="#1473E6" stroke-width="2" fill-opacity="0.1" fill="#1473E6" x="30" y="12" width="15" height="8" rx="2"></rect>
        <rect id="Middle-Left" stroke="#1473E6" stroke-width="2" fill-opacity="0.1" fill="#1473E6" x="15" y="20" width="15" height="10" rx="2"></rect>
        <rect id="Middle-Right" stroke="#1473E6" stroke-width="2" fill-opacity="0.1" fill="#1473E6" x="30" y="20" width="15" height="10" rx="2"></rect>
        <rect id="Bottom-Left" stroke="#1473E6" stroke-width="2" fill-opacity="0.1" fill="#1473E6" x="15" y="30" width="15" height="10" rx="2"></rect>
        <rect id="Bottom-Right" stroke="#1473E6" stroke-width="2" fill-opacity="0.1" fill="#1473E6" x="30" y="30" width="15" height="10" rx="2"></rect>
        <rect id="Very-Bottom-Left" stroke="#1473E6" stroke-width="2" fill-opacity="0.1" fill="#1473E6" x="15" y="40" width="15" height="8" rx="2"></rect>
        <rect id="Very-Bottom-Right" stroke="#1473E6" stroke-width="2" fill-opacity="0.1" fill="#1473E6" x="30" y="40" width="15" height="8" rx="2"></rect>
    </g>
</svg>