<?xml version="1.0" encoding="UTF-8"?>
<svg width="60px" height="60px" viewBox="0 0 60 60" version="1.1" xmlns="http://www.w3.org/2000/svg" xmlns:xlink="http://www.w3.org/1999/xlink">
    <title>Revenue Icon</title>
    <g id="Revenue-Icon" stroke="none" stroke-width="1" fill="none" fill-rule="evenodd">
        <circle id="Circle" fill="#E9F1FF" cx="30" cy="30" r="29"></circle>
        <circle id="Coin-Base" stroke="#1473E6" stroke-width="2" fill-opacity="0.1" fill="#1473E6" cx="30" cy="30" r="20"></circle>
        <path d="M30,20 L30,40" id="Dollar-Vertical" stroke="#1473E6" stroke-width="2" stroke-linecap="round"></path>
        <path d="M35,23 C35,20.791 32.761,19 30,19 C27.239,19 25,20.791 25,23 C25,25.209 27.239,27 30,27 C32.761,27 35,28.791 35,31 C35,33.209 32.761,35 30,35 C27.239,35 25,33.209 25,31" id="Dollar-Curve" stroke="#1473E6" stroke-width="2" stroke-linecap="round"></path>
        <path d="M15,30 L13,30" id="Notch-Left" stroke="#1473E6" stroke-width="2" stroke-linecap="round"></path>
        <path d="M47,30 L45,30" id="Notch-Right" stroke="#1473E6" stroke-width="2" stroke-linecap="round"></path>
        <path d="M30,15 L30,13" id="Notch-Top" stroke="#1473E6" stroke-width="2" stroke-linecap="round"></path>
        <path d="M30,47 L30,45" id="Notch-Bottom" stroke="#1473E6" stroke-width="2" stroke-linecap="round"></path>
        <path d="M20,20 L18.5,18.5" id="Notch-TopLeft" stroke="#1473E6" stroke-width="2" stroke-linecap="round"></path>
        <path d="M41.5,41.5 L40,40" id="Notch-BottomRight" stroke="#1473E6" stroke-width="2" stroke-linecap="round"></path>
        <path d="M40,20 L41.5,18.5" id="Notch-TopRight" stroke="#1473E6" stroke-width="2" stroke-linecap="round"></path>
        <path d="M18.5,41.5 L20,40" id="Notch-BottomLeft" stroke="#1473E6" stroke-width="2" stroke-linecap="round"></path>
    </g>
</svg>