<?xml version="1.0" encoding="UTF-8"?>
<svg width="60px" height="60px" viewBox="0 0 60 60" version="1.1" xmlns="http://www.w3.org/2000/svg" xmlns:xlink="http://www.w3.org/1999/xlink">
    <title>User Experience Icon</title>
    <g id="UX-Icon" stroke="none" stroke-width="1" fill="none" fill-rule="evenodd">
        <circle id="Circle" fill="#E9F1FF" cx="30" cy="30" r="29"></circle>
        <rect id="Device" stroke="#1473E6" stroke-width="2" fill-opacity="0.1" fill="#1473E6" x="10" y="12" width="40" height="30" rx="3"></rect>
        <rect id="Screen" fill="#FFFFFF" x="14" y="16" width="32" height="22" rx="1"></rect>
        <path d="M30,42 L30,48" id="Stand-Stem" stroke="#1473E6" stroke-width="2" stroke-linecap="round"></path>
        <path d="M22,48 L38,48" id="Stand-Base" stroke="#1473E6" stroke-width="2" stroke-linecap="round"></path>
        <circle id="User-Head" stroke="#1473E6" stroke-width="2" fill="#FFFFFF" cx="24" cy="23" r="4"></circle>
        <path d="M20,32 C20,29.239 21.791,27 24,27 C26.209,27 28,29.239 28,32" id="User-Body" stroke="#1473E6" stroke-width="2" stroke-linecap="round"></path>
        <path d="M32,24 L40,24" id="Text-Line-1" stroke="#1473E6" stroke-width="2" stroke-linecap="round"></path>
        <path d="M32,28 L40,28" id="Text-Line-2" stroke="#1473E6" stroke-width="2" stroke-linecap="round"></path>
        <path d="M32,32 L38,32" id="Text-Line-3" stroke="#1473E6" stroke-width="2" stroke-linecap="round"></path>
        <path d="M19,32 L40,32" id="Divider" stroke="#1473E6" stroke-width="0" stroke-linecap="round"></path>
        <path d="M23,35 L32,35" id="Rating-Line" stroke="#1473E6" stroke-width="2" stroke-linecap="round"></path>
        <circle id="Star-1" fill="#1473E6" cx="25" cy="35" r="1.5"></circle>
        <circle id="Star-2" fill="#1473E6" cx="30" cy="35" r="1.5"></circle>
    </g>
</svg>