<?xml version="1.0" encoding="UTF-8"?>
<svg width="200" height="50" viewBox="0 0 200 50" fill="none" xmlns="http://www.w3.org/2000/svg">
  <!-- Define gradients -->
  <defs>
    <linearGradient id="relayGradient" x1="0%" y1="0%" x2="100%" y2="0%">
      <stop offset="0%" stop-color="#dc3545" /> <!-- Red -->
      <stop offset="50%" stop-color="#6f42c1" /> <!-- Purple -->
      <stop offset="100%" stop-color="#1473e6" /> <!-- Blue -->
    </linearGradient>
    <filter id="glow" x="-20%" y="-20%" width="140%" height="140%">
      <feGaussianBlur stdDeviation="2" result="blur"/>
      <feComposite in="SourceGraphic" in2="blur" operator="over"/>
    </filter>
  </defs>
  
  <!-- Background elements -->
  <path d="M10 25C10 15 14 10 22 10" stroke="url(#relayGradient)" stroke-width="1.5" stroke-linecap="round" opacity="0.5"/>
  <path d="M10 25C10 35 14 40 22 40" stroke="url(#relayGradient)" stroke-width="1.5" stroke-linecap="round" opacity="0.5"/>
  <circle cx="10" cy="25" r="3" fill="url(#relayGradient)" opacity="0.8"/>
  
  <!-- RELAY.AI text with gradient using paths instead of text for better compatibility -->
  <g filter="url(#glow)" fill="url(#relayGradient)">
    <!-- R -->
    <path d="M30 13H40C42 13 44 15 44 18C44 21 42 23 40 23H34V32H30V13ZM34 19H38C39 19 40 18.5 40 18C40 17.5 39 17 38 17H34V19Z"/>
    <!-- E -->
    <path d="M47 13H60V17H51V20H58V24H51V28H60V32H47V13Z"/>
    <!-- L -->
    <path d="M63 13H67V28H74V32H63V13Z"/>
    <!-- A -->
    <path d="M77 13H81L88 32H84L82 28H76L74 32H70L77 13ZM77.5 24H80.5L79 20L77.5 24Z"/>
    <!-- Y -->
    <path d="M91 13H95L99 20L103 13H107L101 23V32H97V23L91 13Z"/>
    <!-- . -->
    <circle cx="108" cy="30" r="2"/>
    <!-- A -->
    <path d="M112 13H116L123 32H119L117 28H111L109 32H105L112 13ZM112.5 24H115.5L114 20L112.5 24Z"/>
    <!-- I -->
    <path d="M125 13H129V32H125V13Z"/>
  </g>
  
  <!-- Connection network lines -->
  <path d="M160 15L170 15" stroke="url(#relayGradient)" stroke-width="1" stroke-linecap="round" opacity="0.6"/>
  <path d="M165 10L165 20" stroke="url(#relayGradient)" stroke-width="1" stroke-linecap="round" opacity="0.6"/>
  <path d="M175 15L182 15" stroke="url(#relayGradient)" stroke-width="1" stroke-linecap="round" opacity="0.6"/>
  <path d="M155 15L148 15" stroke="url(#relayGradient)" stroke-width="1" stroke-linecap="round" opacity="0.6"/>
  
  <!-- Circuit elements for AI theme -->
  <circle cx="148" cy="15" r="2" fill="url(#relayGradient)" opacity="0.8"/>
  <circle cx="182" cy="15" r="2" fill="url(#relayGradient)" opacity="0.8"/>
  <circle cx="165" cy="10" r="1.5" fill="url(#relayGradient)" opacity="0.7"/>
  <circle cx="165" cy="20" r="1.5" fill="url(#relayGradient)" opacity="0.7"/>
  
  <!-- Pulse animation circle -->
  <circle cx="10" cy="25" r="8" fill="url(#relayGradient)" opacity="0.2">
    <animate attributeName="r" values="8;12;8" dur="3s" repeatCount="indefinite" />
    <animate attributeName="opacity" values="0.2;0.4;0.2" dur="3s" repeatCount="indefinite" />
  </circle>
</svg>