<?xml version="1.0" encoding="UTF-8"?>
<svg width="200" height="50" viewBox="0 0 200 50" fill="none" xmlns="http://www.w3.org/2000/svg">
  <!-- Define gradient -->
  <defs>
    <linearGradient id="relayGradient" x1="0%" y1="0%" x2="100%" y2="0%">
      <stop offset="0%" stop-color="#dc3545" /> <!-- Red -->
      <stop offset="50%" stop-color="#6f42c1" /> <!-- Purple -->
      <stop offset="100%" stop-color="#1473e6" /> <!-- Blue -->
    </linearGradient>
  </defs>
  
  <!-- Text "Relay" with gradient -->
  <path d="M32.784 38H24.544V12.8H36.128C38.5333 12.8 40.6133 13.248 42.368 14.144C44.1227 15.04 45.4667 16.32 46.4 17.984C47.3333 19.648 47.8 21.5893 47.8 23.808C47.8 26.0267 47.3333 27.968 46.4 29.632C45.4667 31.296 44.1227 32.576 42.368 33.472C40.6133 34.368 38.5333 34.816 36.128 34.816H32.784V38ZM32.784 27.808H35.84C36.992 27.808 37.9467 27.5733 38.704 27.104C39.4613 26.6347 40.0267 25.9733 40.4 25.12C40.7733 24.2667 40.96 23.232 40.96 22.016C40.96 20.8 40.7733 19.776 40.4 18.944C40.0267 18.112 39.4613 17.472 38.704 17.024C37.9467 16.576 36.992 16.352 35.84 16.352H32.784V27.808Z" fill="url(#relayGradient)"/>
  <path d="M51.8859 38V12.8H68.8379V16.384H60.1259V23.328H67.5099V26.912H60.1259V34.416H68.8379V38H51.8859Z" fill="url(#relayGradient)"/>
  <path d="M72.9273 38V12.8H81.1673V34.416H89.8793V38H72.9273Z" fill="url(#relayGradient)"/>
  <path d="M104.062 38.32C101.593 38.32 99.4495 37.7973 97.6415 36.752C95.8335 35.7067 94.4362 34.2773 93.4495 32.464C92.4629 30.6507 91.9695 28.5707 91.9695 26.224C91.9695 23.8773 92.4629 21.7973 93.4495 19.984C94.4362 18.1707 95.8335 16.7413 97.6415 15.696C99.4495 14.6507 101.593 14.128 104.062 14.128C106.531 14.128 108.675 14.6507 110.483 15.696C112.291 16.7413 113.688 18.1707 114.675 19.984C115.661 21.7973 116.155 23.8773 116.155 26.224C116.155 28.5707 115.661 30.6507 114.675 32.464C113.688 34.2773 112.291 35.7067 110.483 36.752C108.675 37.7973 106.531 38.32 104.062 38.32ZM104.062 34.416C105.491 34.416 106.686 34.096 107.651 33.456C108.615 32.816 109.331 31.9147 109.803 30.752C110.275 29.5893 110.51 28.2453 110.51 26.736C110.51 25.2267 110.275 23.8827 109.803 22.72C109.331 21.5573 108.615 20.656 107.651 20.016C106.686 19.376 105.491 19.056 104.062 19.056C102.633 19.056 101.438 19.376 100.474 20.016C99.5095 20.656 98.7935 21.5573 98.3215 22.72C97.8495 23.8827 97.6135 25.2267 97.6135 26.736C97.6135 28.2453 97.8495 29.5893 98.3215 30.752C98.7935 31.9147 99.5095 32.816 100.474 33.456C101.438 34.096 102.633 34.416 104.062 34.416Z" fill="url(#relayGradient)"/>
  <path d="M134.482 38L127.218 26.96V38H118.978V12.8H127.218V23.84L134.482 12.8H144.03L134.93 25.92L144.03 38H134.482Z" fill="url(#relayGradient)"/>
  
  <!-- Dot separator -->
  <circle cx="150" cy="25" r="3" fill="url(#relayGradient)"/>
  
  <!-- Text "AI" with gradient -->
  <path d="M164.744 38L157.368 12.8H165.896L170.136 30.72L174.408 12.8H181.704L174.328 38H164.744Z" fill="url(#relayGradient)"/>
  <path d="M183.72 38V12.8H191.96V38H183.72Z" fill="url(#relayGradient)"/>
  
  <!-- Connection lines to represent "Relay" concept -->
  <path d="M20 40C14 40 10 36 10 25S14 10 20 10" stroke="url(#relayGradient)" stroke-width="2" stroke-linecap="round"/>
  <circle cx="10" cy="25" r="4" fill="url(#relayGradient)"/>
  
  <!-- AI circuit pattern -->
  <path d="M186 8L186 4" stroke="url(#relayGradient)" stroke-width="1.5" stroke-linecap="round"/>
  <path d="M190 8L190 4" stroke="url(#relayGradient)" stroke-width="1.5" stroke-linecap="round"/>
  <path d="M182 6H194" stroke="url(#relayGradient)" stroke-width="1.5" stroke-linecap="round"/>
</svg>