<?xml version="1.0" encoding="UTF-8"?>
<svg width="600" height="400" viewBox="0 0 600 400" xmlns="http://www.w3.org/2000/svg">
  <defs>
    <linearGradient id="functionalGradient" x1="0%" y1="0%" x2="100%" y2="100%">
      <stop offset="0%" stop-color="#e4fff1" />
      <stop offset="100%" stop-color="#baf5d8" />
    </linearGradient>
    <filter id="shadow" x="-20%" y="-20%" width="140%" height="140%">
      <feGaussianBlur in="SourceAlpha" stdDeviation="10" />
      <feOffset dx="0" dy="10" result="offsetblur" />
      <feComponentTransfer>
        <feFuncA type="linear" slope="0.2" />
      </feComponentTransfer>
      <feMerge>
        <feMergeNode />
        <feMergeNode in="SourceGraphic" />
      </feMerge>
    </filter>
  </defs>

  <!-- Background with subtle pattern -->
  <rect width="600" height="400" fill="url(#functionalGradient)" />
  <path d="M0,400 L600,400 L600,250 C550,280 450,220 400,260 C350,300 250,240 200,300 C150,360 50,320 0,350 Z" fill="#baf5d8" opacity="0.3" />

  <!-- Main Process Flowchart -->
  <g transform="translate(300, 200)">
    <!-- Flowchart Container -->
    <rect x="-200" y="-120" width="400" height="240" rx="12" fill="#ffffff" filter="url(#shadow)" />
    
    <!-- Start Node -->
    <g transform="translate(-150, -80)">
      <circle cx="0" cy="0" r="25" fill="#1473e6" />
      <text x="0" y="5" font-family="Arial" font-size="10" font-weight="bold" text-anchor="middle" fill="#ffffff">START</text>
    </g>
    
    <!-- Process Nodes -->
    <g transform="translate(-50, -80)">
      <rect x="-50" y="-25" width="100" height="50" rx="5" fill="#f0f8ff" stroke="#1473e6" stroke-width="2" />
      <text x="0" y="5" font-family="Arial" font-size="10" font-weight="bold" text-anchor="middle" fill="#1473e6">TEST SETUP</text>
    </g>

    <g transform="translate(150, -80)">
      <rect x="-50" y="-25" width="100" height="50" rx="5" fill="#f0f8ff" stroke="#1473e6" stroke-width="2" />
      <text x="0" y="5" font-family="Arial" font-size="10" font-weight="bold" text-anchor="middle" fill="#1473e6">API IMPORTS</text>
    </g>

    <g transform="translate(-150, 0)">
      <rect x="-50" y="-25" width="100" height="50" rx="5" fill="#f0f8ff" stroke="#1473e6" stroke-width="2" />
      <text x="0" y="-5" font-family="Arial" font-size="10" font-weight="bold" text-anchor="middle" fill="#1473e6">SELENIUM</text>
      <text x="0" y="10" font-family="Arial" font-size="10" font-weight="bold" text-anchor="middle" fill="#1473e6">TESTS</text>
    </g>

    <g transform="translate(50, 0)">
      <rect x="-50" y="-25" width="100" height="50" rx="5" fill="#f0f8ff" stroke="#1473e6" stroke-width="2" />
      <text x="0" y="-5" font-family="Arial" font-size="10" font-weight="bold" text-anchor="middle" fill="#1473e6">PLAYWRIGHT</text>
      <text x="0" y="10" font-family="Arial" font-size="10" font-weight="bold" text-anchor="middle" fill="#1473e6">TESTS</text>
    </g>

    <g transform="translate(150, 0)">
      <rect x="-40" y="-25" width="80" height="50" rx="5" fill="#e4fff1" stroke="#1473e6" stroke-width="2" />
      <text x="0" y="5" font-family="Arial" font-size="10" font-weight="bold" text-anchor="middle" fill="#1473e6">VALIDATE</text>
    </g>

    <g transform="translate(0, 80)">
      <rect x="-60" y="-25" width="120" height="50" rx="5" fill="#1473e6" opacity="0.9" />
      <text x="0" y="5" font-family="Arial" font-size="12" font-weight="bold" text-anchor="middle" fill="#ffffff">REPORT RESULTS</text>
    </g>

    <!-- Connection Lines -->
    <line x1="-125" y1="-80" x2="-100" y2="-80" stroke="#1473e6" stroke-width="2" />
    <line x1="0" y1="-80" x2="100" y2="-80" stroke="#1473e6" stroke-width="2" />
    <path d="M-50,-30 L-50,-15 Q-50,0 -75,0 L-100,0" stroke="#1473e6" stroke-width="2" fill="none" />
    <path d="M150,-30 L150,-15 Q150,0 125,0 L110,0" stroke="#1473e6" stroke-width="2" fill="none" />
    <path d="M-150,25 L-150,40 Q-150,55 -125,55 L-75,55 Q-50,55 -50,67.5 L-50,80" stroke="#1473e6" stroke-width="2" fill="none" />
    <path d="M50,25 L50,40 Q50,55 25,55 L-25,55 Q-50,55 -50,67.5 L-50,80" stroke="#1473e6" stroke-width="2" fill="none" />
    <path d="M150,25 L150,40 Q150,55 125,55 L75,55 Q50,55 50,67.5 L50,80" stroke="#1473e6" stroke-width="2" fill="none" />

    <!-- Status Indicators -->
    <circle cx="-150" cy="-40" r="5" fill="#34c759" /> <!-- Success indicator -->
    <circle cx="50" cy="-40" r="5" fill="#34c759" /> <!-- Success indicator -->
    <circle cx="-75" cy="25" r="5" fill="#34c759" /> <!-- Success indicator -->
    <circle cx="125" cy="25" r="5" fill="#34c759" /> <!-- Success indicator -->
    <circle cx="0" cy="40" r="5" fill="#34c759" /> <!-- Success indicator -->
  </g>

  <!-- Supporting Elements -->
  <g transform="translate(120, 60)" opacity="0.8">
    <rect x="-20" y="-15" width="40" height="30" rx="5" fill="#ffffff" stroke="#1473e6" stroke-width="1" />
    <text x="0" y="5" font-family="Arial" font-size="9" font-weight="bold" text-anchor="middle" fill="#1473e6">HTML</text>
  </g>

  <g transform="translate(175, 80)" opacity="0.8">
    <rect x="-20" y="-15" width="40" height="30" rx="5" fill="#ffffff" stroke="#1473e6" stroke-width="1" />
    <text x="0" y="5" font-family="Arial" font-size="9" font-weight="bold" text-anchor="middle" fill="#1473e6">CSS</text>
  </g>

  <g transform="translate(150, 120)" opacity="0.8">
    <rect x="-20" y="-15" width="40" height="30" rx="5" fill="#ffffff" stroke="#1473e6" stroke-width="1" />
    <text x="0" y="5" font-family="Arial" font-size="9" font-weight="bold" text-anchor="middle" fill="#1473e6">JS</text>
  </g>

  <g transform="translate(450, 60)" opacity="0.8">
    <rect x="-20" y="-15" width="40" height="30" rx="5" fill="#ffffff" stroke="#1473e6" stroke-width="1" />
    <text x="0" y="5" font-family="Arial" font-size="9" font-weight="bold" text-anchor="middle" fill="#1473e6">REST</text>
  </g>

  <g transform="translate(480, 100)" opacity="0.8">
    <rect x="-20" y="-15" width="40" height="30" rx="5" fill="#ffffff" stroke="#1473e6" stroke-width="1" />
    <text x="0" y="5" font-family="Arial" font-size="9" font-weight="bold" text-anchor="middle" fill="#1473e6">SOAP</text>
  </g>

  <g transform="translate(440, 140)" opacity="0.8">
    <rect x="-20" y="-15" width="40" height="30" rx="5" fill="#ffffff" stroke="#1473e6" stroke-width="1" />
    <text x="0" y="5" font-family="Arial" font-size="9" font-weight="bold" text-anchor="middle" fill="#1473e6">gRPC</text>
  </g>

  <!-- Bottom Label -->
  <g transform="translate(300, 350)">
    <rect x="-100" y="-20" width="200" height="40" rx="20" fill="#ffffff" filter="url(#shadow)" />
    <text x="0" y="5" font-family="Arial" font-size="14" font-weight="bold" text-anchor="middle" fill="#1473e6">FUNCTIONAL AUTOMATION</text>
  </g>
</svg>